<?xml version="1.0" encoding="UTF-8"?>
<svg xmlns="http://www.w3.org/2000/svg" xmlns:xlink="http://www.w3.org/1999/xlink" version="1.1" viewBox="0 0 541.91 542.04">
  <defs>
    <style>
      .cls-1 {
        fill: url(#linear-gradient);
      }
    </style>
    <linearGradient id="linear-gradient" x1="87.06" y1="454.63" x2="470.51" y2="71.18" gradientUnits="userSpaceOnUse">
      <stop offset="0" stop-color="#a437e7"/>
      <stop offset=".25" stop-color="#6d42d5"/>
      <stop offset=".43" stop-color="#2a51c0"/>
      <stop offset=".66" stop-color="#3985bf"/>
      <stop offset=".82" stop-color="#419ebe"/>
      <stop offset="1" stop-color="#5adebf"/>
    </linearGradient>
  </defs>
  <g>
    <g id="Layer_1">
      <path class="cls-1" d="M270.25,542.04C120.62,541.72-.17,420.51,0,271.07.17,127.17,115.15-.45,272.65,0c145.93.42,269.67,118.82,269.26,272.41-.39,148.38-122.91,269.94-271.66,269.62ZM174.94,514.05c.88.26,1.76.52,2.63.78.03-.22.06-.44.08-.65-.94-.02-1.88-.04-2.82-.06-.49-.5-.97-1-1.46-1.5-.13.16-.26.32-.39.48.64.33,1.27.65,1.95.96ZM63.98,142.24c-.56.42-1.12.84-1.68,1.26.16.14.31.28.47.42.38-.59.76-1.18,1.13-1.79.72-1.12,1.43-2.24,2.15-3.37,1.12-.97,2.41-1.8,3.35-2.92,13.27-15.9,28.22-30.01,45.08-42.03,52.16-37.16,110.47-53.33,174.22-50.75,1.68.07,3.37,0,5.06,0-3.14-.5-6.26-.98-9.4-1.13-15.67-.73-31.31-.6-46.93,1.18-34.2,3.9-66.43,13.94-96.55,30.62-27.51,15.23-51.34,34.92-71.06,59.47-1.4,1.74-2.46,3.76-3.67,5.65-1.35.73-2.17,1.79-2.15,3.38ZM235.17,22.43c7.8-.6,15.59-1.53,23.39-1.73,21.68-.55,43.14,1.68,64.37,6.11.85.18,1.71.29,2.57.43.04-.28.08-.57.11-.85-8.07-1.41-16.1-3.04-24.2-4.2-18.96-2.7-38.02-3.14-57.09-1.42-3.05.27-6.32-.09-9.15,1.67-1.29-.08-2.59-.16-3.88-.24,0,.15,0,.31,0,.46l3.89-.22ZM137.49,64.58c1.5-.61,3.06-1.11,4.49-1.86,12.1-6.34,24.62-11.73,37.54-16.16,25.63-8.79,52.03-13.49,79.09-14.43,17.45-.6,34.83.41,52.12,3.23,1.04.09,2.09.19,3.13.28-.02-.24-.03-.48-.05-.72-1.06.17-2.12.34-3.18.52-1.35-1.99-3.59-1.57-5.47-1.86-26.51-4.11-53.04-4.24-79.57-.18-30.12,4.61-58.56,14.18-85.23,28.94-1.05.58-1.88,1.54-2.82,2.31-1.88-.08-3.13,1.02-4.41,2.07.14.23.27.46.41.69,1.31-.94,2.62-1.89,3.93-2.83ZM213.7,503.55c-1.55-.34-3.1-.67-4.65-1.01,1.43,1.3,3.01,1.62,4.74.94,1.29.66,2.52,1.6,3.9,1.93,18.64,4.4,37.57,6.59,56.69,6.79,21.69.23,43.11-2.28,64.19-7.45,29.37-7.21,56.66-19.14,81.71-36.11,1.41-.95,2.51-2.36,3.76-3.56l2.21-.87-.44-.69c-.56.55-1.12,1.1-1.68,1.65-1.57.78-3.22,1.42-4.69,2.36-20.18,13.01-41.73,23.06-64.65,30.17-20.09,6.23-40.61,10.37-61.64,11.39-11.71.57-23.47.72-35.19.33-14.9-.5-29.63-2.83-44.26-5.87ZM167.67,180.91c-.6,2.19-1.27,3.84-1.5,5.55-1.24,9.26-2.47,18.46-1.82,27.92.88,12.86,4.07,24.94,10.13,36.22,4.17,7.76,9.64,14.57,16.99,19.61,11.46,7.87,22.84,15.89,34.58,23.33,34.26,21.7,69.98,40.62,107.88,55.18,11.43,4.39,23.2,7.92,34.87,11.64,5.17,1.65,5.63,1.21,6.64-4.27.39-2.11.54-4.26.89-6.38,1.6-9.83,1.45-19.7,0-29.48-1.45-9.79-4.37-19.26-9.24-27.95-4.48-8-10.17-15-17.76-20.43-36.62-26.2-75.35-48.75-116.33-67.41-19.24-8.76-38.88-16.46-59.28-22.14-1.8-.5-3.64-.84-6.06-1.39ZM164.83,255.05l-.93.21c0,1.86-.15,3.74.02,5.59,1.45,15.35,3.5,30.62,6.67,45.72,6.89,32.85,17.54,64.34,34.13,93.64,9.32,16.47,20.3,31.72,34.19,44.7,7.43,6.94,15.56,12.89,24.66,17.48,2.28,1.15,4.43,1.52,6.89.65,3.45-1.22,6.99-2.19,10.47-3.33,1.04-.34,2-.9,3.48-1.59-1.19-.89-1.9-1.56-2.73-2-14.33-7.67-26.42-18.14-37.4-29.98-16.79-18.12-30.15-38.62-41.5-60.47-17.54-33.76-29.55-69.46-36.99-106.73-.26-1.31-.66-2.6-.99-3.89ZM173.09,266.25c-.54,1.04-.77,1.27-.74,1.47.19,1.25.37,2.5.66,3.72,3.99,16.73,8.88,33.19,14.92,49.31,10.52,28.05,23.78,54.69,41.22,79.13,11.21,15.71,23.86,30.11,39.23,41.94,6.13,4.72,12.64,8.81,19.62,12.17,2.24,1.08,4.25,1.17,6.46-.06,3.54-1.96,7.18-3.72,10.75-5.62,1.07-.57,2.02-1.35,3.52-2.37-1.58-.92-2.64-1.5-3.67-2.14-6.79-4.15-13.86-7.89-20.29-12.53-19.21-13.89-35.16-31.13-49.54-49.85-25.93-33.76-45.52-70.98-60.34-110.79-.47-1.26-1.02-2.49-1.79-4.38ZM157.03,247.48c-.42,1.14-.81,1.78-.88,2.45-.27,2.64-.56,5.28-.63,7.93-.43,17.32.11,34.6,2.04,51.83,2.56,22.8,7.18,45.14,14.64,66.85,7.3,21.28,16.95,41.38,30.75,59.29,9.1,11.82,19.69,21.98,32.63,29.63,4.58,2.71,9.09,4.18,14.34,2.42,1.66-.56,3.47-.65,5.19-1.07.78-.19,1.49-.66,2.6-1.18-1.02-.8-1.64-1.4-2.37-1.83-13.41-8.01-24.54-18.58-34.37-30.6-16.32-19.96-28.3-42.42-37.67-66.3-14.38-36.64-22.27-74.71-24.45-113.98-.09-1.71.2-3.56-1.81-5.43ZM182.32,275.39c-.36.82-.57,1.07-.52,1.25.31,1.09.63,2.19,1.05,3.24,14.25,35.36,32.44,68.51,55.73,98.76,13.78,17.9,29.06,34.36,47.18,47.99,7.9,5.94,16.23,11.18,25.32,15.16,2.19.96,4.03.98,5.96-.59,3.73-3.03,7.57-5.9,11.32-8.9.63-.5,1.01-1.32,1.71-2.26-1.23-.69-2.16-1.31-3.16-1.75-12.82-5.61-24.52-13.08-35.63-21.51-25.15-19.08-46.6-41.86-66.02-66.61-15.25-19.43-28.81-39.98-40.86-61.54-.57-1.02-1.26-1.97-2.08-3.22ZM148.68,240.47c-.36,1.38-.76,2.54-.97,3.73-4.27,25.26-6.14,50.64-4.55,76.27,1.27,20.52,4.34,40.71,10.09,60.45,6.09,20.91,14.75,40.62,27.96,58.12,9.09,12.05,19.86,22.24,33.28,29.4,3.64,1.94,11.21,2.28,15.61.62-.85-.73-1.52-1.43-2.31-1.95-12.78-8.55-23.2-19.47-32.15-31.88-12.38-17.17-21.42-36.06-28.21-56.03-14.25-41.85-18.85-84.96-16.29-128.95.12-2.14.2-4.29.22-6.44.01-1.44-.24-2.81-2.67-3.34ZM376.56,285.03c.2-.04.4-.07.6-.11,0-1.62.13-3.25-.02-4.86-1.31-13.84-3.18-27.61-5.91-41.25-6.04-30.27-15.37-59.43-29.47-86.97-8.56-16.72-18.69-32.4-31.43-46.29-8.77-9.56-18.59-17.82-29.99-24.15-3.76-2.09-7.31-3.04-11.45-1.19-2.52,1.13-5.29,1.7-7.92,2.59-.9.3-1.74.81-3.04,1.44,1.16.82,1.89,1.46,2.72,1.91,11.53,6.28,21.65,14.41,30.95,23.61,12.83,12.69,23.73,26.91,33.35,42.13,22.51,35.61,37.73,74.25,47.59,115.09,1.45,5.99,2.69,12.03,4.03,18.04ZM233.16,95.93c1.42.98,1.89,1.4,2.43,1.66,18.2,8.89,33.52,21.59,47.58,35.94,19.94,20.35,36.42,43.3,50.79,67.83,12.81,21.87,23.58,44.7,32.44,68.44.52,1.39.74,3.01,2.52,4.7-.41-2.05-.62-3.29-.91-4.5-5.7-23.78-13.33-46.92-23.21-69.29-11.49-26.02-25.51-50.54-43.72-72.51-9.48-11.43-19.85-21.97-32.14-30.39-5.09-3.49-10.61-6.35-16.01-9.36-1.01-.56-2.63-1.06-3.53-.64-5.25,2.43-10.36,5.14-16.23,8.12ZM383.69,294.12c.42,0,.84,0,1.26,0,.22-2.98.55-5.96.63-8.94.57-20.25-.19-40.44-2.9-60.55-3.33-24.67-9.12-48.69-18.47-71.8-7.78-19.22-17.68-37.22-31.36-52.95-7.52-8.64-15.98-16.19-25.87-22.06q-7.69-4.56-16.37-2.86c-1.36.27-2.74.51-4.08.85-.63.16-1.2.54-2.2,1.01,1.25.83,2.06,1.4,2.91,1.91,8.04,4.88,15.3,10.76,21.99,17.35,9.59,9.46,17.82,20.01,25.09,31.32,16.5,25.65,27.85,53.55,35.92,82.85,7.24,26.3,11.59,53.07,12.98,80.33.06,1.19.31,2.37.47,3.55ZM192.32,282.3c-.26.17-.52.35-.78.52.71,1.39,1.34,2.82,2.13,4.15,16.19,27.24,34.76,52.74,56.16,76.12,15.91,17.38,33.11,33.35,52.59,46.73,8.98,6.17,18.42,11.5,28.43,15.84,2.51,1.09,4.55,1.04,6.45-1.1,3.18-3.59,6.47-7.08,9.65-10.68.63-.72.97-1.69,1.44-2.53-.39-.46-.57-.84-.87-1-.88-.48-1.82-.87-2.72-1.31-8.75-4.23-17.75-8.01-26.2-12.79-26.1-14.76-49.34-33.42-71.11-53.93-19.07-17.96-36.84-37.13-53.01-57.76-.64-.82-1.44-1.52-2.17-2.28ZM211.43,111.18c.2.34.4.67.6,1.01.96.52,1.9,1.1,2.9,1.54,9.64,4.25,18.66,9.57,27.32,15.54,15.15,10.45,28.93,22.5,41.83,35.58,28.5,28.9,52.26,61.34,72.26,96.6.71,1.26,1.49,2.48,2.24,3.71.23-.11.46-.22.68-.33-.67-1.72-1.32-3.46-2.02-5.17-5.84-14.29-12.4-28.24-19.73-41.82-14.71-27.26-31.89-52.79-53-75.56-11.03-11.9-22.9-22.91-36.6-31.71-5.62-3.61-11.69-6.5-17.53-9.77-2.18-1.22-3.98-.91-5.88.65-3.41,2.81-6.94,5.49-10.45,8.18-.8.61-1.75,1.04-2.62,1.55ZM140.38,232.37c-.83,2.57-1.68,4.9-2.34,7.28-8.02,29.05-12.14,58.59-11.49,88.78.48,21.87,3.52,43.31,10.09,64.19,5.9,18.75,14.46,36.12,27.25,51.21,8,9.44,17.3,17.35,28.22,23.27,3.2,1.73,6.53,2.33,10.7,1.7-1.07-1.01-1.7-1.74-2.45-2.3-11.93-8.85-21.58-19.8-29.61-32.21-13.51-20.86-21.81-43.81-27.08-67.96-5.31-24.34-7.06-48.97-6.24-73.84.4-12.14,1.36-24.22,3.11-36.23.89-6.12,1.97-12.22,2.99-18.33.38-2.28.32-4.31-3.15-5.56ZM392.06,301.31c.39-.3.71-.42.76-.6.39-1.59.82-3.18,1.08-4.79,4.08-25.28,5.71-50.69,4.02-76.29-1.44-21.78-5.01-43.15-11.67-63.96-6.32-19.77-15.06-38.32-28.02-54.69-8.72-11.02-18.98-20.25-31.41-26.99-4.78-2.59-9.62-1.38-15.25-1.12,1.01.94,1.32,1.33,1.72,1.59,16.92,11.15,29.64,26.2,40.16,43.28,11.27,18.31,19.33,38.04,25.28,58.65,10.38,35.91,13.93,72.61,12.56,109.86-.14,3.79-.47,7.57-.65,11.35-.06,1.34-.42,2.86,1.43,3.72ZM192.84,131.14c3.31,1.37,5.99,2.44,8.63,3.58,18.11,7.76,34.73,18.11,50.57,29.72,35.1,25.72,65.63,56.18,92.9,89.99,1,1.25,2.03,2.47,3.05,3.71.23-.14.45-.28.68-.42-.53-1.06-.99-2.17-1.61-3.18-2.5-4.1-4.98-8.22-7.57-12.26-20.22-31.53-43.42-60.61-71.1-85.98-14.49-13.28-29.95-25.27-47.44-34.43-3.69-1.93-7.56-3.52-11.33-5.28-1.52-.71-2.83-.65-4.18.53-4.58,4.02-8.34,8.73-12.6,14.03ZM201,285.18c-.24.25-.48.5-.72.75.81,1.08,1.58,2.19,2.44,3.24,16.44,20.09,34.19,38.93,53.45,56.32,19.56,17.65,40.25,33.8,63.07,47.09,9.3,5.42,18.89,10.22,28.99,13.96,3.34,1.24,3.83,1.24,5.74-1.59,2.89-4.28,5.6-8.7,8.15-13.2,1.31-2.32.92-3-1.59-3.98-2.83-1.09-5.74-1.96-8.58-3.03-22.94-8.62-44.33-20.29-64.98-33.34-29.78-18.82-57.5-40.33-83.4-64.2-.8-.74-1.72-1.35-2.58-2.02ZM339.07,73.69c1.17.93,1.81,1.48,2.49,1.98,7.78,5.74,14.61,12.47,20.69,19.97,11.02,13.58,19.2,28.79,25.49,45.04,9.16,23.65,14.13,48.22,16.03,73.46,1.95,25.83.94,51.54-3.1,77.13-.71,4.49-1.58,8.96-2.3,13.45-.49,3.01-.31,3.24,2.75,4.53.46-1.44.96-2.84,1.37-4.27,7.6-26.77,11.94-54.02,12.22-81.89.23-23.27-2.19-46.2-8.66-68.61-5.74-19.88-14.26-38.37-27.48-54.48-8.18-9.98-17.81-18.26-29.14-24.52-3.1-1.71-6.3-2.09-10.36-1.79ZM178.54,153.17c3.8,1.35,7.12,2.49,10.41,3.71,24.77,9.22,47.72,21.97,69.86,36.24,27.15,17.5,52.58,37.24,76.49,58.94.95.86,1.96,1.64,2.95,2.45.21-.23.42-.45.63-.68-.91-1.16-1.75-2.37-2.73-3.47-9.54-10.62-18.82-21.5-28.73-31.76-22.28-23.07-46.5-43.87-73.45-61.37-12.32-8-25.13-15.09-38.84-20.47-1.18-.46-2.35-1.06-3.57-1.22-.85-.11-2.13.12-2.63.7-4.21,4.91-7.44,10.44-10.38,16.92ZM174.24,464.18c.1-.28.21-.57.31-.85-.11-.21-.19-.47-.35-.64-.44-.45-.91-.88-1.39-1.28-14.68-12.37-25.4-27.69-33.46-44.97-11.38-24.4-16.79-50.29-18.28-77-1.7-30.61,1.28-60.84,8.82-90.58,1.65-6.49,3.58-12.91,5.31-19.37.94-3.48.27-4.61-3.24-5.86-.24.25-.58.48-.74.8-.47.89-.92,1.8-1.29,2.74-10.67,26.95-17.77,54.75-20.18,83.7-1.66,20.01-1.12,39.9,2.51,59.66,3.64,19.82,10.1,38.6,20.97,55.71,9.37,14.75,21.31,26.91,36.43,35.81,1.44.85,3.05,1.42,4.58,2.12ZM209.37,286.52c-.21.33-.42.66-.63.98,1.36,1.28,2.66,2.63,4.1,3.82,10.99,9.12,21.78,18.52,33.07,27.26,28.18,21.79,57.83,41.31,90.34,56.11,8.04,3.66,16.39,6.66,24.66,9.77,4.27,1.6,4.76,1.35,6.52-2.97,1.72-4.2,3.23-8.5,4.6-12.83,1.14-3.61.87-3.96-2.89-4.98-26.95-7.34-52.54-18.15-77.6-30.32-27.22-13.23-53.43-28.22-78.74-44.81-1.11-.73-2.29-1.35-3.43-2.02ZM168.94,176.81c.86.55,1.15.8,1.49.94.7.28,1.42.53,2.15.72,22.9,6.11,44.81,14.87,66.29,24.77,30.45,14.04,59.64,30.38,87.73,48.68,1.41.92,2.85,1.8,4.28,2.7.26-.32.52-.65.77-.97-.9-.66-1.86-1.25-2.69-1.98-28.23-25.07-58.32-47.6-90.94-66.66-18.03-10.54-36.62-19.92-56.47-26.58-1.53-.51-3.11-.91-4.87-1.42-4.1,6.15-5.95,12.88-7.74,19.81ZM367.85,78.46l-.86,1.11c.75.43,1.58.76,2.22,1.3,11.15,9.38,20.05,20.63,27.28,33.23,8.75,15.25,14.71,31.58,18.64,48.67,8.19,35.64,7.79,71.43,1.81,107.31-2.39,14.35-5.85,28.45-10.13,42.36-1.12,3.62-.91,3.96,2.78,6.17.63-1.37,1.32-2.67,1.86-4.03,6.3-15.76,11.3-31.91,14.83-48.51,6.71-31.58,8.47-63.32,2.52-95.23-3.6-19.3-9.98-37.59-20.51-54.28-9.39-14.89-21.37-27.17-36.62-36.12-1.24-.72-2.55-1.32-3.83-1.97ZM142.61,450.2c.2-.19.4-.37.6-.56-.47-.57-.91-1.16-1.41-1.7-9.68-10.35-17.21-22.12-23.09-34.97-10.14-22.16-14.81-45.61-15.88-69.8-1.1-24.77,1.59-49.21,7.35-73.32,4-16.76,9.39-33.05,16.04-48.94,1.8-4.31,1.39-5.56-2.92-8.36-.95,1.57-2.02,3.07-2.83,4.71-16.7,33.68-27.28,69-28.95,106.77-.95,21.67,1.29,42.92,7.92,63.61,7.58,23.65,20.21,44,39.61,59.85,1.16.94,2.38,1.81,3.57,2.71ZM418.13,329.76c.89-1.62,1.64-2.91,2.31-4.24,16.95-33.72,27.54-69.19,29.3-107.05,1.13-24.24-1.77-47.95-10.35-70.77-7.42-19.75-18.66-36.93-34.76-50.74-.93-.8-1.74-1.94-3.66-2.12.61.85.87,1.28,1.19,1.64,13.52,15.35,22.6,33.13,28.53,52.57,9.07,29.75,10.43,60.12,6.85,90.82-3.3,28.3-10.87,55.49-21.89,81.74-1.74,4.14-1.7,4.24,2.47,8.13ZM115.9,199.03c-1.25,1.72-2.36,3.06-3.26,4.52-20.47,33.51-33.75,69.48-37.04,108.83-1.75,20.98-.21,41.68,5.58,61.98,5.31,18.6,13.93,35.49,26.48,50.29.88,1.03,1.66,2.24,3.07,2.67-.52-1.39-1.28-2.54-1.95-3.74-2.88-5.19-6.01-10.27-8.56-15.62-10.97-23.03-15.28-47.56-15.53-72.86-.19-19.68,2.38-39.08,7.03-58.21,5.7-23.47,14.41-45.8,25.78-67.08,2.15-4.02,1.69-7.06-1.61-10.79ZM433.64,117.77c-.21.15-.43.31-.64.46.43.76.84,1.52,1.3,2.26,7.48,12.15,12.91,25.17,16.59,38.93,8.02,30,7.89,60.25,2.51,90.61-5.16,29.12-15.1,56.62-29.11,82.62-2.1,3.91-1.64,6.78,1.36,10.19.91-1.25,1.78-2.28,2.47-3.41,11.66-18.92,21.08-38.88,27.71-60.11,9.76-31.22,13.44-62.98,7.86-95.45-3.89-22.68-12.4-43.43-26.52-61.75-1.14-1.48-2.36-2.91-3.54-4.36ZM123.02,168.99c-.29-.16-.59-.32-.88-.48-.92.95-1.9,1.86-2.76,2.87-17.68,20.58-32.04,43.23-42.35,68.37-13.57,33.11-19.8,67.31-14.88,103.08,2.45,17.83,7.91,34.71,16.53,50.53.51.93,1.19,1.77,1.79,2.65.26-1.32,0-2.37-.4-3.37-10.68-26.2-13.65-53.5-11.29-81.48,1.91-22.56,7.4-44.32,15.59-65.42,7.21-18.58,16.53-36.05,27.26-52.82,1.13-1.77,2.18-3.76,2.58-5.78.88-4.5,2.91-8.06,6.9-10.37,1.63-.94,2.27-2.25,2.12-4.07-.1-1.24-.14-2.48-.2-3.73ZM419.45,373.75c1.02-1.09,1.98-2.03,2.85-3.06,14.58-17.29,26.95-36.03,36.64-56.48,16.52-34.84,24.84-71.26,20.75-109.99-2.05-19.33-7.58-37.61-16.84-54.74-.31-.58-.7-1.12-1.06-1.67-.03,1.41.37,2.58.83,3.74,6.31,16.02,9.81,32.67,10.86,49.81,1.65,27.07-2.17,53.46-10.31,79.27-7.77,24.65-19.07,47.59-33.22,69.18-1.15,1.75-2.19,3.77-2.56,5.79-.76,4.14-2.79,7.22-6.2,9.56-3.33,2.28-3.77,4.29-1.72,8.59ZM57.1,359.8c.2-.05.4-.1.6-.14-.22-1.31-.37-2.64-.65-3.94-4.51-20.88-4.81-41.9-1.89-62.98,3.41-24.64,11.06-48.01,22.17-70.21,14.38-28.74,33.13-54.35,56.17-76.79,1.35-1.31,2.84-2.64,3.71-4.26,2.58-4.8,5.96-8.76,10.7-11.51,1.22-.71,2.23-1.58,1.91-3.83-1.39.93-2.53,1.61-3.58,2.4-17.11,12.95-32.63,27.6-46.21,44.22-28.8,35.24-47.1,74.98-51.07,120.7-1.88,21.65.32,42.92,7.01,63.66.3.92.76,1.79,1.14,2.68ZM486.03,186.64c-.33.06-.66.11-.99.17.08.6.13,1.21.25,1.81,1.99,9.81,3.09,19.73,3.3,29.73.62,30.04-5.61,58.76-17.14,86.39-14.78,35.42-36.62,65.94-64.32,92.37-1.09,1.04-2.27,2.11-2.96,3.41-2.56,4.81-5.98,8.73-10.69,11.52-1.46.86-2.47,2.05-2.08,4.6,1.78-1.14,3.26-1.96,4.6-2.97,10.81-8.18,20.81-17.28,30.2-27.04,23.97-24.9,42.64-53.2,54.53-85.76,11.36-31.11,15.28-63.01,9.48-95.82-1.09-6.19-2.77-12.27-4.18-18.4ZM192.55,89.75c-1.14-.14-1.42-.26-1.62-.19-.95.34-1.89.72-2.81,1.12-36.06,15.82-67.59,37.95-93.9,67.35-22.53,25.17-38.97,53.75-48.27,86.31-6.31,22.11-8.74,44.61-6.48,67.54.16,1.6.6,3.18.91,4.76.65-1.02.62-1.89.66-2.77.4-9.59.18-19.26,1.32-28.76,3.57-29.79,13.68-57.43,28.8-83.27,24.36-41.63,57.76-74.23,99.11-98.82,6.18-3.68,12.54-7.05,18.79-10.62,1.06-.6,1.96-1.47,3.49-2.66ZM348.49,452.59l.42.75c.35,0,.74.1,1.06-.02,1.31-.47,2.6-.97,3.88-1.53,36.42-15.99,68.25-38.34,94.28-68.57,30.68-35.63,50.21-76.23,53.95-123.64.8-10.16.83-20.35-.88-30.47-.2,1.13-.22,2.26-.2,3.38.18,11.66-.81,23.23-2.87,34.71-5.98,33.43-19.51,63.66-38.94,91.34-21.66,30.86-49.05,55.68-80.73,75.86-8.41,5.35-17.25,10.02-25.85,15.07-1.47.86-2.75,2.06-4.11,3.1ZM296.96,478.02c.04.2.09.4.13.6.71-.07,1.43-.11,2.14-.22,22.23-3.39,43.7-9.49,64.4-18.26,45.36-19.21,82.76-48.34,110.54-89.29,16.83-24.81,28.19-51.91,33.13-81.58.2-1.23.29-2.47.43-3.71-.97,1.15-1.26,2.37-1.6,3.57-1.92,6.81-3.55,13.72-5.84,20.4-13.94,40.72-38.07,74.55-70.32,102.69-36.93,32.23-79.46,53.56-127.29,64.3-1.92.43-3.81.99-5.72,1.49ZM232.46,66.69c-.03-.17-.06-.35-.09-.52-.95.11-1.92.12-2.84.34-6.64,1.59-13.33,2.98-19.88,4.88-52.57,15.22-97.1,42.96-131.83,85.6-24.51,30.09-39.76,64.35-44.95,102.93-.17,1.26-.02,2.56-.02,3.85.87-1.28,1.21-2.6,1.53-3.92,1.45-6.02,2.65-12.11,4.39-18.04,11.05-37.54,30.99-69.91,58.06-97.88,36.72-37.95,81.23-62.59,132.07-76.17,1.19-.32,2.37-.71,3.55-1.06ZM270.33,489.9c0,.19,0,.39,0,.58.56.07,1.12.22,1.67.21,20.55-.36,40.84-2.89,60.77-7.93,44.92-11.36,84.62-32.25,117.71-65.03,20.35-20.15,36.48-43.23,47.93-69.51,1.04-2.4,1.96-4.85,2.99-7.4-.44.03-.62,0-.65.05-.6,1.1-1.24,2.19-1.78,3.32-15.61,32.74-37.81,60.27-65.92,83.08-46.53,37.76-99.93,57.94-159.54,62.18-1.07.08-2.13.3-3.2.45ZM260.51,52.59c-2.26,0-4.54-.16-6.79.03-13.11,1.09-26.12,2.88-38.95,5.83-54.19,12.48-100.39,38.63-137.19,80.65-16.82,19.2-29.82,40.74-38.74,64.69-.48,1.3-.85,2.64-1.27,3.96l.84.28c.69-1.46,1.41-2.9,2.06-4.37,11.27-25.44,26.49-48.27,45.75-68.33,37.49-39.04,83.14-63.66,135.6-76.07,12.78-3.03,25.75-5,38.68-6.67ZM475.36,404.37c-.27-.2-.54-.4-.81-.6-29.02,34.43-64.41,59.98-106.31,76.38-41.93,16.42-85.42,21.83-130.21,18.01,1.33.52,2.65.9,4,1.06,21.3,2.57,42.61,2.63,63.91.09,26.4-3.16,51.81-10.04,76.05-21.02,35.48-16.07,65.88-38.75,90.04-69.5,1.14-1.45,2.22-2.94,3.33-4.42ZM332.76,515.85c-12.33,1.98-24.67,3.83-37.16,4.68-12.63.85-25.23.87-37.85.03-12.5-.84-24.92-2.33-37.11-5.14-12.11-2.79-24.09-6.17-36.13-9.29,48.48,17.98,97.9,21.6,148.25,9.73ZM121.78,201.29c1.65-2.72,3.12-5.02,4.46-7.39,1.78-3.12,1.47-4.75-1.6-7.93-1.44,1.96-2.88,3.82-4.22,5.75-2.54,3.65-2.38,5.18,1.36,9.56ZM416.28,356.13c2.39-1.4,3.37-3.81,4.76-5.81,2.46-3.52,2.23-5.01-1.28-8.91-1.36,2.22-2.53,4.39-3.96,6.38-2.1,2.92-1.62,5.54.48,8.34ZM130.55,199.43c-1.46,2.39-2.78,4.36-3.9,6.42-1.66,3.07-.97,4.67,2.91,6.54.95-1.87,1.87-3.77,2.87-5.62,1.41-2.62.88-4.81-1.88-7.34ZM408.29,385.18c4.87-3.03,7.27-8.76,5.43-13.14-1.87,2.25-3.76,4.24-5.31,6.47-1.37,1.96-1.19,4.19-.13,6.68ZM411.04,342.55c1.34-2.26,2.47-4.06,3.49-5.92,1.76-3.25,1.31-4.54-2.39-6.59-1,2.02-1.94,4.07-3,6.05-1.32,2.45-.5,4.27,1.9,6.46ZM127.23,170.71c2-2.32,3.42-4.03,4.9-5.67,2.09-2.33,2-4.92,1.23-7.74-4.33,2.21-6.71,7.05-6.13,13.42ZM136.15,177.23c-4.02-.92-5.17-.41-7,2.66-1.29,2.17-.96,3.75,1.56,6.43,1.98-2.86,4.28-5.4,5.44-9.09ZM411.05,355.7c-1.87,2.79-3.57,5.07-4.97,7.52-.88,1.55.07,2.78,1.85,2.53.93-.13,1.95-.55,2.67-1.16,3-2.53,3.17-4.43.45-8.9ZM136.8,221.79c3.58-4.34,3.73-7.82.12-10.19-.88,1.81-1.87,3.53-2.58,5.36-.95,2.49-.49,3.25,2.46,4.82ZM135.47,198.57c4.32-4.48,5.01-7.34,2.38-10.67-1.17,1.7-2.26,3.3-3.36,4.9-1.46,2.12-1.04,3.93.98,5.78ZM405.92,343.89c-4.25,5.07-4.75,7.3-2.15,10.31,1.14-1.71,2.32-3.28,3.3-4.97,1.31-2.27,1.19-2.62-1.15-5.33ZM397.1,379.92c2.81-1.38,4.46-3.54,5.71-5.92.7-1.34.32-2.85-1.55-4.38-1.59,3.48-5.92,5.28-4.17,10.31ZM384.75,406.92c5.5-2.31,7.42-5.13,6.07-8.59-4.3,2.01-6.22,4.61-6.07,8.59ZM144.46,162.38c-5.97,4.4-6.9,6.58-4.32,10.15,1.76-3.18,5.67-5.11,4.32-10.15ZM404.75,320.62c-3.34,5.65-3.39,7.44-.16,9.66.73-1.49,1.51-2.9,2.13-4.38,1.2-2.88,1.12-3-1.97-5.27ZM141.36,209c2.94-3.96,3.2-5.66,1.38-7.92-3.33,3.26-3.72,5.16-1.38,7.92ZM156.41,136.02c-2.87,1.76-6.37,3.05-5.6,7.48,2.67-1.87,5.74-3.42,5.6-7.48ZM145.71,177.6c-2.06,1.43-3.71,3.01-3.96,5.39-.07.64.62,1.36,1.16,2.43,1.79-2.75,4.13-4.63,2.8-7.83ZM395.64,364.98c2.47-1.19,3.47-3.22,4.18-5.31.22-.66-.47-1.63-.96-3.11-1.97,2.98-4.45,4.82-3.22,8.43ZM144.38,222.13c-3.25,4.26-3.15,6.28.18,7.29,1.94-3.87,1.94-4.57-.18-7.29ZM399.68,332.9c-.55,3.21-3.41,5.2-1.08,8.23,3.39-3.18,3.79-4.98,1.08-8.23ZM392.28,383.27c-3.53,1.56-5.09,3.91-4.45,6.45,3.42-1.3,4.52-2.8,4.45-6.45ZM397.14,319.85c2.8-3.97,2.79-5.37-.28-7.19-.27,2.49-2.4,4.75.28,7.19ZM149.8,159.35c1.96-2.2,4.15-3.6,4.26-6.74-4.1,1.96-4.83,3.06-4.26,6.74ZM379.19,424.02c2.48-1.96,4.37-3.24,4.88-6.29-2.73,1.32-4.79,2.45-4.88,6.29ZM146.9,217.73c1.99-2.32,2.1-2.98.82-5.17-2.26,2.79-2.29,2.95-.82,5.17ZM392.6,350.97c.27.12.55.24.82.35,2.6-2.58,2.64-2.71,1.28-5.68-.81,2.06-1.46,3.69-2.1,5.32ZM146.11,196.24c2.66-2.7,2.81-3.16,1.96-5.6-1.43,1.49-2.65,2.88-1.96,5.6ZM193.21,520.46c-.03-.34,0-.65-.08-.68-2.53-.9-5.07-1.78-7.6-2.66-.07.25-.14.49-.21.74,2.6.86,5.2,1.71,7.89,2.6ZM150.8,231.01c-.83,2.28-2.16,3.84.18,5.36q1.36-2.41-.18-5.36ZM381.43,395.56c-2.41,1.06-3.54,2.24-3.98,4.62,2.27-.76,3.64-1.7,3.98-4.62ZM403.62,385.4c-2.19.56-3.23,1.61-3.56,3.56q3.16-.26,3.56-3.56ZM387.96,375.02c3.08-1.59,3.34-1.99,3.06-4.81-1.93,1.07-2.82,2.56-3.06,4.81ZM399.89,394.04c-1.78-.98-2.82-.77-3.35.42-.23.52.17,1.31.41,2.74,1.3-1.4,1.99-2.14,2.94-3.15ZM395,325.03c-.36-.04-.72-.08-1.08-.12-.29,1.45-.57,2.89-.86,4.34,2.09-1.07,3.04-2.38,1.94-4.22ZM162.04,119.79l-.69-.55c-.98,1.12-1.97,2.24-2.95,3.36,2.2,0,3.35-.98,3.64-2.81ZM390.26,310.44q1.63-2.49.01-4.19c-.52,1.45-1.12,2.72-.01,4.19ZM138.74,156.95c1.06-1.14,1.88-2.04,2.98-3.23-3.54-.04-3.59.02-2.98,3.23ZM141.6,147.74q3.26.71,2.59-2.6c-1.17,1.17-1.88,1.89-2.59,2.6ZM150.45,172.21c1.83-1.67,2.97-2.81,2.83-5.54-1.58,1.78-3.1,2.67-2.83,5.54ZM350.51,440.47q2.95.2,3.75-2.58c-1.54,1.06-2.65,1.82-3.75,2.58ZM160.41,145.25c1.86.1,2.63-.83,2.54-2.59l-2.54,2.59ZM266.4,52.02s0,.04,0,.07h2.55s0-.04,0-.07h-2.55ZM368.16,429.19c.22.29.44.59.67.88.61-.49,1.21-.97,1.82-1.46-.17-.23-.34-.46-.5-.69-.66.42-1.32.84-1.98,1.27ZM152.85,225.56c.17-.74.32-1.15.32-1.56,0-.1-.65-.36-.75-.27-.23.21-.41.59-.39.89.01.23.36.43.82.93ZM361.36,423.89c.16.19.32.39.48.58.61-.49,1.21-.98,1.82-1.46-.16-.2-.33-.39-.49-.59-.6.49-1.2.98-1.81,1.48ZM151.27,203.97c-.2-.13-.39-.26-.59-.39-.14.31-.36.62-.39.94-.03.34.11.69.18,1.04.17-.01.35-.02.52-.04.09-.52.18-1.04.27-1.56ZM190.33,102.06c-.12-.25-.24-.5-.37-.75-.59.41-1.17.83-1.76,1.24.13.18.26.36.39.53.58-.34,1.16-.68,1.73-1.02ZM378.35,411.15c-.34-.29-.65-.71-.8-.65-.29.1-.6.44-.67.74-.04.17.41.67.57.64.29-.06.52-.39.9-.72ZM157.85,240.29c-.21,0-.41-.02-.62-.03-.03.53-.05,1.07-.08,1.6.21,0,.42.02.63.03.02-.53.05-1.07.07-1.6ZM178.53,503.43c-.1.14-.2.28-.3.42.35.16.71.32,1.06.48.05-.11.1-.22.16-.34-.31-.19-.61-.38-.92-.57ZM163.24,508.93c.06-.08.12-.15.18-.23-.15-.18-.28-.41-.47-.51-.17-.09-.42-.02-.64-.02.31.25.62.5.93.76Z"/>
    </g>
  </g>
</svg>